<svg xmlns="http://www.w3.org/2000/svg" width="32" height="24" viewBox="0 0 32 24">
<rect width="100%" height="100%" fill="#000"/>
<g fill="#fff" font-family="Consolas, monospace" font-size="2.66667">
<text x="0" y="3.42857">`</text>
<text x="2.66667" y="3.42857">:</text>
<text x="5.33333" y="3.42857">I</text>
<text x="8" y="3.42857">&gt;</text>
<text x="10.6667" y="3.42857">_</text>
<text x="13.3333" y="3.42857">?</text>
<text x="16" y="3.42857">&lt;</text>
<text x="18.6667" y="3.42857">-</text>
<text x="21.3333" y="3.42857">]</text>
<text x="24" y="3.42857">1</text>
<text x="26.6667" y="3.42857">|</text>
<text x="29.3333" y="3.42857">t</text>
<text x="0" y="6.85714">&gt;</text>
<text x="2.66667" y="6.85714">+</text>
<text x="5.33333" y="6.85714">-</text>
<text x="8" y="6.85714">}</text>
<text x="10.6667" y="6.85714">_</text>
<text x="13.3333" y="6.85714">]</text>
<text x="16" y="6.85714">{</text>
<text x="18.6667" y="6.85714">|</text>
<text x="21.3333" y="6.85714">/</text>
<text x="24" y="6.85714">r</text>
<text x="26.6667" y="6.85714">\</text>
<text x="29.3333" y="6.85714">t</text>
<text x="0" y="10.2857">]</text>
<text x="2.66667" y="10.2857">{</text>
<text x="5.33333" y="10.2857">)</text>
<text x="8" y="10.2857">[</text>
<text x="10.6667" y="10.2857">1</text>
<text x="13.3333" y="10.2857">|</text>
<text x="16" y="10.2857">t</text>
<text x="18.6667" y="10.2857">x</text>
<text x="21.3333" y="10.2857">u</text>
<text x="24" y="10.2857">f</text>
<text x="26.6667" y="10.2857">n</text>
<text x="29.3333" y="10.2857">v</text>
<text x="0" y="13.7143">/</text>
<text x="2.66667" y="13.7143">1</text>
<text x="5.33333" y="13.7143">(</text>
<text x="8" y="13.7143">t</text>
<text x="10.6667" y="13.7143">r</text>
<text x="13.3333" y="13.7143">u</text>
<text x="16" y="13.7143">z</text>
<text x="18.6667" y="13.7143">x</text>
<text x="21.3333" y="13.7143">v</text>
<text x="24" y="13.7143">X</text>
<text x="26.6667" y="13.7143">C</text>
<text x="29.3333" y="13.7143">Q</text>
<text x="0" y="17.1429">|</text>
<text x="2.66667" y="17.1429">f</text>
<text x="5.33333" y="17.1429">r</text>
<text x="8" y="17.1429">v</text>
<text x="10.6667" y="17.1429">X</text>
<text x="13.3333" y="17.1429">U</text>
<text x="16" y="17.1429">c</text>
<text x="18.6667" y="17.1429">Y</text>
<text x="21.3333" y="17.1429">C</text>
<text x="24" y="17.1429">0</text>
<text x="26.6667" y="17.1429">w</text>
<text x="29.3333" y="17.1429">p</text>
<text x="0" y="20.5714">x</text>
<text x="2.66667" y="20.5714">c</text>
<text x="5.33333" y="20.5714">X</text>
<text x="8" y="20.5714">C</text>
<text x="10.6667" y="20.5714">0</text>
<text x="13.3333" y="20.5714">Y</text>
<text x="16" y="20.5714">L</text>
<text x="18.6667" y="20.5714">O</text>
<text x="21.3333" y="20.5714">w</text>
<text x="24" y="20.5714">d</text>
<text x="26.6667" y="20.5714">a</text>
<text x="29.3333" y="20.5714">q</text>
<text x="0" y="24">J</text>
<text x="2.66667" y="24">0</text>
<text x="5.33333" y="24">Z</text>
<text x="8" y="24">p</text>
<text x="10.6667" y="24">O</text>
<text x="13.3333" y="24">m</text>
<text x="16" y="24">d</text>
<text x="18.6667" y="24">h</text>
<text x="21.3333" y="24">*</text>
<text x="24" y="24">W</text>
<text x="26.6667" y="24">a</text>
<text x="29.3333" y="24">#</text>
</g>
</svg>
